<mxfile host="app.diagrams.net" agent="Mozilla/5.0 (Windows NT 10.0; Win64; x64) AppleWebKit/537.36 (KHTML, like Gecko) Chrome/135.0.0.0 Safari/537.36" version="26.2.14">
  <diagram name="Page-1" id="qlIvZHE6yaYYwGzq6Yc4">
    <mxGraphModel dx="5679" dy="2416" grid="1" gridSize="10" guides="1" tooltips="1" connect="1" arrows="1" fold="1" page="1" pageScale="1" pageWidth="827" pageHeight="1169" math="0" shadow="0">
      <root>
        <mxCell id="0" />
        <mxCell id="1" parent="0" />
        <mxCell id="fvVxuebXhPKmqRE7-w7U-1" value="" style="rounded=0;whiteSpace=wrap;html=1;fillColor=none;" vertex="1" parent="1">
          <mxGeometry x="75" y="30" width="720" height="1560" as="geometry" />
        </mxCell>
        <mxCell id="fvVxuebXhPKmqRE7-w7U-2" value="" style="ellipse;whiteSpace=wrap;html=1;" vertex="1" parent="1">
          <mxGeometry x="320" y="190" width="210" height="140" as="geometry" />
        </mxCell>
        <mxCell id="fvVxuebXhPKmqRE7-w7U-3" value="&lt;font style=&quot;font-size: 28px;&quot;&gt;Registers&lt;/font&gt;" style="text;html=1;align=left;verticalAlign=middle;whiteSpace=wrap;rounded=0;" vertex="1" parent="1">
          <mxGeometry x="367" y="245" width="116" height="30" as="geometry" />
        </mxCell>
        <mxCell id="fvVxuebXhPKmqRE7-w7U-4" value="" style="ellipse;whiteSpace=wrap;html=1;" vertex="1" parent="1">
          <mxGeometry x="320" y="360" width="210" height="140" as="geometry" />
        </mxCell>
        <mxCell id="fvVxuebXhPKmqRE7-w7U-5" value="&lt;font style=&quot;font-size: 28px;&quot;&gt;Books Appoinment&lt;/font&gt;" style="text;html=1;align=center;verticalAlign=middle;whiteSpace=wrap;rounded=0;" vertex="1" parent="1">
          <mxGeometry x="358" y="390" width="154" height="80" as="geometry" />
        </mxCell>
        <mxCell id="fvVxuebXhPKmqRE7-w7U-6" value="" style="ellipse;whiteSpace=wrap;html=1;" vertex="1" parent="1">
          <mxGeometry x="320" y="560" width="210" height="140" as="geometry" />
        </mxCell>
        <mxCell id="fvVxuebXhPKmqRE7-w7U-7" value="&lt;font style=&quot;font-size: 28px;&quot;&gt;Set Avaibility&lt;/font&gt;" style="text;html=1;align=center;verticalAlign=middle;whiteSpace=wrap;rounded=0;" vertex="1" parent="1">
          <mxGeometry x="348" y="590" width="154" height="80" as="geometry" />
        </mxCell>
        <mxCell id="fvVxuebXhPKmqRE7-w7U-8" value="" style="ellipse;whiteSpace=wrap;html=1;" vertex="1" parent="1">
          <mxGeometry x="320" y="760" width="210" height="140" as="geometry" />
        </mxCell>
        <mxCell id="fvVxuebXhPKmqRE7-w7U-9" value="&lt;font style=&quot;font-size: 28px;&quot;&gt;Provides Prescription&lt;/font&gt;" style="text;html=1;align=center;verticalAlign=middle;whiteSpace=wrap;rounded=0;" vertex="1" parent="1">
          <mxGeometry x="348" y="790" width="154" height="80" as="geometry" />
        </mxCell>
        <mxCell id="fvVxuebXhPKmqRE7-w7U-10" value="" style="ellipse;whiteSpace=wrap;html=1;" vertex="1" parent="1">
          <mxGeometry x="320" y="960" width="210" height="140" as="geometry" />
        </mxCell>
        <mxCell id="fvVxuebXhPKmqRE7-w7U-11" value="&lt;font style=&quot;font-size: 28px;&quot;&gt;Access Medical History&lt;/font&gt;" style="text;html=1;align=center;verticalAlign=middle;whiteSpace=wrap;rounded=0;" vertex="1" parent="1">
          <mxGeometry x="348" y="990" width="154" height="80" as="geometry" />
        </mxCell>
        <mxCell id="fvVxuebXhPKmqRE7-w7U-12" value="" style="ellipse;whiteSpace=wrap;html=1;" vertex="1" parent="1">
          <mxGeometry x="320" y="1150" width="210" height="140" as="geometry" />
        </mxCell>
        <mxCell id="fvVxuebXhPKmqRE7-w7U-13" value="" style="ellipse;whiteSpace=wrap;html=1;" vertex="1" parent="1">
          <mxGeometry x="320" y="1330" width="210" height="140" as="geometry" />
        </mxCell>
        <mxCell id="fvVxuebXhPKmqRE7-w7U-14" value="&lt;font style=&quot;font-size: 28px;&quot;&gt;Access Prescription&lt;/font&gt;" style="text;html=1;align=center;verticalAlign=middle;whiteSpace=wrap;rounded=0;" vertex="1" parent="1">
          <mxGeometry x="348" y="1180" width="154" height="80" as="geometry" />
        </mxCell>
        <mxCell id="fvVxuebXhPKmqRE7-w7U-15" value="&lt;font style=&quot;font-size: 20px;&quot;&gt;Patient&lt;/font&gt;" style="shape=umlActor;html=1;verticalLabelPosition=bottom;verticalAlign=top;align=center;" vertex="1" parent="1">
          <mxGeometry x="-620" y="845" width="60" height="70" as="geometry" />
        </mxCell>
        <mxCell id="fvVxuebXhPKmqRE7-w7U-16" value="" style="shape=umlActor;html=1;verticalLabelPosition=bottom;verticalAlign=top;align=center;" vertex="1" parent="1">
          <mxGeometry x="1540" y="450" width="60" height="70" as="geometry" />
        </mxCell>
        <mxCell id="fvVxuebXhPKmqRE7-w7U-17" value="" style="shape=umlActor;html=1;verticalLabelPosition=bottom;verticalAlign=top;align=center;" vertex="1" parent="1">
          <mxGeometry x="1540" y="820" width="60" height="70" as="geometry" />
        </mxCell>
        <mxCell id="fvVxuebXhPKmqRE7-w7U-18" value="&lt;font style=&quot;font-size: 20px;&quot;&gt;Doctor&lt;/font&gt;" style="text;html=1;align=center;verticalAlign=middle;whiteSpace=wrap;rounded=0;" vertex="1" parent="1">
          <mxGeometry x="1540" y="530" width="60" height="25" as="geometry" />
        </mxCell>
        <mxCell id="fvVxuebXhPKmqRE7-w7U-19" value="&lt;font style=&quot;font-size: 20px;&quot;&gt;Nurse&lt;/font&gt;" style="text;html=1;align=center;verticalAlign=middle;whiteSpace=wrap;rounded=0;" vertex="1" parent="1">
          <mxGeometry x="1540" y="900" width="60" height="30" as="geometry" />
        </mxCell>
        <mxCell id="fvVxuebXhPKmqRE7-w7U-20" value="" style="endArrow=none;html=1;rounded=0;entryX=0;entryY=0.5;entryDx=0;entryDy=0;" edge="1" parent="1" target="fvVxuebXhPKmqRE7-w7U-2">
          <mxGeometry width="50" height="50" relative="1" as="geometry">
            <mxPoint x="-540" y="910" as="sourcePoint" />
            <mxPoint x="140" y="330" as="targetPoint" />
          </mxGeometry>
        </mxCell>
        <mxCell id="fvVxuebXhPKmqRE7-w7U-21" value="" style="endArrow=none;html=1;rounded=0;entryX=0;entryY=0.5;entryDx=0;entryDy=0;" edge="1" parent="1" target="fvVxuebXhPKmqRE7-w7U-4">
          <mxGeometry width="50" height="50" relative="1" as="geometry">
            <mxPoint x="-540" y="910" as="sourcePoint" />
            <mxPoint x="348" y="351.5" as="targetPoint" />
          </mxGeometry>
        </mxCell>
        <mxCell id="fvVxuebXhPKmqRE7-w7U-22" value="" style="endArrow=none;html=1;rounded=0;entryX=0;entryY=0.5;entryDx=0;entryDy=0;" edge="1" parent="1" target="fvVxuebXhPKmqRE7-w7U-13">
          <mxGeometry width="50" height="50" relative="1" as="geometry">
            <mxPoint x="-540" y="910" as="sourcePoint" />
            <mxPoint x="288.19" y="1073.25" as="targetPoint" />
          </mxGeometry>
        </mxCell>
        <mxCell id="fvVxuebXhPKmqRE7-w7U-23" value="" style="endArrow=none;html=1;rounded=0;" edge="1" parent="1">
          <mxGeometry width="50" height="50" relative="1" as="geometry">
            <mxPoint x="530" y="630" as="sourcePoint" />
            <mxPoint x="1530" y="490" as="targetPoint" />
          </mxGeometry>
        </mxCell>
        <mxCell id="fvVxuebXhPKmqRE7-w7U-24" value="" style="endArrow=none;html=1;rounded=0;exitX=0.983;exitY=0.365;exitDx=0;exitDy=0;exitPerimeter=0;" edge="1" parent="1" source="fvVxuebXhPKmqRE7-w7U-8">
          <mxGeometry width="50" height="50" relative="1" as="geometry">
            <mxPoint x="530" y="810" as="sourcePoint" />
            <mxPoint x="1530" y="490" as="targetPoint" />
          </mxGeometry>
        </mxCell>
        <mxCell id="fvVxuebXhPKmqRE7-w7U-25" value="" style="endArrow=none;html=1;rounded=0;exitX=0.986;exitY=0.376;exitDx=0;exitDy=0;exitPerimeter=0;" edge="1" parent="1" source="fvVxuebXhPKmqRE7-w7U-10">
          <mxGeometry width="50" height="50" relative="1" as="geometry">
            <mxPoint x="530" y="1180" as="sourcePoint" />
            <mxPoint x="1530" y="490" as="targetPoint" />
          </mxGeometry>
        </mxCell>
        <mxCell id="fvVxuebXhPKmqRE7-w7U-26" value="" style="endArrow=none;html=1;rounded=0;entryX=0;entryY=0.5;entryDx=0;entryDy=0;" edge="1" parent="1" target="fvVxuebXhPKmqRE7-w7U-12">
          <mxGeometry width="50" height="50" relative="1" as="geometry">
            <mxPoint x="-540" y="910" as="sourcePoint" />
            <mxPoint x="327" y="1360.5" as="targetPoint" />
          </mxGeometry>
        </mxCell>
        <mxCell id="fvVxuebXhPKmqRE7-w7U-27" value="" style="endArrow=none;html=1;rounded=0;exitX=0.981;exitY=0.636;exitDx=0;exitDy=0;exitPerimeter=0;" edge="1" parent="1" source="fvVxuebXhPKmqRE7-w7U-6">
          <mxGeometry width="50" height="50" relative="1" as="geometry">
            <mxPoint x="540" y="1020" as="sourcePoint" />
            <mxPoint x="1540" y="880" as="targetPoint" />
          </mxGeometry>
        </mxCell>
        <mxCell id="fvVxuebXhPKmqRE7-w7U-28" value="&lt;b&gt;An Automated System For Local Gps&lt;/b&gt;" style="text;html=1;align=center;verticalAlign=middle;whiteSpace=wrap;rounded=0;fontSize=20;" vertex="1" parent="1">
          <mxGeometry x="200" y="70" width="500" height="30" as="geometry" />
        </mxCell>
        <mxCell id="fvVxuebXhPKmqRE7-w7U-29" value="&lt;font style=&quot;font-size: 28px;&quot;&gt;Buy Medicine&lt;/font&gt;" style="text;html=1;align=center;verticalAlign=middle;whiteSpace=wrap;rounded=0;" vertex="1" parent="1">
          <mxGeometry x="348" y="1360" width="154" height="80" as="geometry" />
        </mxCell>
      </root>
    </mxGraphModel>
  </diagram>
</mxfile>
